<svg class="icon" width="30" height="30" viewBox="0 0 1024 1024" xmlns="http://www.w3.org/2000/svg"><path fill="#007711" d="M512 1024c282.767 0 512-229.233 512-512S794.767 0 512 0 0 229.233 0 512s229.233 512 512 512zm256.205-705.434H260.608v-51.61h507.597v51.61zm11.694 455.68h-534.59v-52.183h159.888c-19.6-42.598-40.305-79.4-62.096-110.387l41.104-26.419h-72.008v-206.09h406.2v206.09h-75.591l41.103 27.013c-19.415 42.598-39.608 79.196-60.62 109.773h156.61v52.224zM661.402 533.361V432.25H368.906v101.11h292.496zm-28.509 51.896H394.711a1153.413 1153.413 0 0 1 69.898 136.806h97.198c29.799-46.203 53.494-91.811 71.086-136.806z"/></svg>