<svg class="icon" width="30" height="30" viewBox="0 0 1024 1024" xmlns="http://www.w3.org/2000/svg"><path fill="#2dbe60" d="M512 1024c282.767 0 512-229.233 512-512S794.767 0 512 0 0 229.233 0 512s229.233 512 512 512zm33.403-813.875s172.626-8.704 212.357 32.215c26.747 27.525 18.883 44.032 22.036 90.44 3.134 46.387 14.95 158.064 8.643 248.504-8.028 115.405-36.168 228.864-68.403 262.676-32.256 33.833-164.147 38.708-206.848 12.596-32.113-19.64-30.68-118.764-7.086-147.866 24.965-30.761 95.17-18.862 95.17-18.862l-3.932 47.186s-31.457-4.71-44.032 7.065c-12.595 11.797-6.103 45.67 5.489 51.917 11.591 6.247 77.865 10.24 103.014-4.71 25.19-14.95 10.302-94.74 3.154-117.187-7.168-22.446-40.1-29.102-40.1-29.102s-66.191-1.229-98.304-17.305c-32.133-16.057-34.61-92.017-34.61-92.017s-2.356 119.542-36.19 128.983c-33.504 9.36-198.184-28.303-211.557-45.609-23.286-30.167-55.829-205.271-55.829-251.679 0-46.387 30.249-49.11 47.186-52.674 16.957-3.584 91.238 2.355 103.834-8.663 12.574-10.998.962-101.786 12.574-118.743 11.592-16.958 22.426-37.356 103.793-33.833 81.387 3.543 89.661 56.627 89.661 56.627zm-224.891 25.927c1.229-28.794 3.133-57.425 3.133-57.425l-114.81 116.408s37.457-4.772 61.337-6.308c23.88-1.536 48.743-.778 48.743-.778s.348-23.122 1.597-51.897zm321.126 254.813a131.81 131.81 0 0 1 44.135 11.51s.655-9.995.655-10.875c0-22.63-18.985-40.96-41.615-40.96a41.226 41.226 0 0 0-41.267 40.96c0 .368 13.107-2.56 38.092-.635z"/></svg>