<svg class="icon" width="30" height="30" viewBox="0 0 1024 1024" xmlns="http://www.w3.org/2000/svg"><path fill="#0052d9" d="M512 0C229.224 0 0 229.224 0 512s229.224 512 512 512 512-229.224 512-512S794.776 0 512 0zm289.261 668.862c-21.732 18.64-49.948-61.346-54.006-49.039-9.88 29.924-14.507 49.93-43.634 82.508-1.555 1.745 33.659 14.469 43.634 41.643 9.557 26.017 28.14 67.262-93.488 80.213-71.358 7.585-122.937-38.02-128.076-37.584-9.538.834-5.29 0-15.53 0-8.382 0-8.932.606-16.82 0-2.162-.171-25.885 37.584-131.964 37.584-82.223 0-103.519-51.75-86.983-80.213 16.536-28.463 44.127-36.75 40.24-41.263-19.153-22.187-32.351-45.91-40.24-67.357-1.953-5.347-3.584-10.543-4.873-15.53-2.997-11.454-25.885 67.204-50.46 49.038-24.577-18.167-22.377-64.418-6.467-108.677 16.042-44.62 56.471-87.59 56.927-97.072 1.611-35.29-3.49-41.15 0-50.422 7.755-20.764 17.199-12.8 17.199-23.571 0-135.737 100.864-245.76 225.28-245.76s225.28 110.042 225.28 245.76c0 5.196 13.52 0 19.987 23.571 1.327 4.873 2.238 23.666.664 50.422-.74 12.857 34.266 28.502 52.375 97.072 18.129 68.57 0 100.92-9.045 108.677z"/></svg>