<svg class="icon" viewBox="0 0 1024 1024" xmlns="http://www.w3.org/2000/svg" width="30" height="30"><defs><style/></defs><path fill="#F5BE3F" d="M512 1024c282.767 0 512-229.233 512-512S794.767 0 512 0 0 229.233 0 512s229.233 512 512 512zm20.48-307.2S328.417 840.847 315.802 830.71c-12.616-10.138 41.37-241.255 41.37-241.255S174.407 437.248 181.881 418.57c7.476-18.698 242.259-35.225 242.259-35.225S511.365 163.84 532.48 163.84c21.115 0 108.34 219.525 108.34 219.525s235.765 16.589 242.257 35.205c6.492 18.596-175.309 170.865-175.309 170.865s2.274 14.786 4.895 25.805c.164.716-84.849 2.662-154.542 0-36.598-1.434-80.65-8.192-80.65-8.192l201.728-143.872s-72.95-13.128-146.719-15.77c-80.794-2.867-163.492 4.915-175.309 7.905-7.414 1.885 52.245 1.72 120.3 7.865 47.636 4.3 110.325 15.77 110.325 15.77l-201.728 150.18s86.385 5.242 163.881 4.73c87.245-.573 165.95-11.428 166.441-9.339 15.176 65.72 43.213 195.584 32.768 206.193C734.966 845.148 532.48 716.8 532.48 716.8z"/></svg>