<svg class="icon" width="30" height="30" viewBox="0 0 1024 1024" xmlns="http://www.w3.org/2000/svg"><path fill="#1da1f2" d="M512 0C229.233 0 0 229.233 0 512s229.233 512 512 512 512-229.233 512-512S794.767 0 512 0zm254.484 381.481c.246 5.632.39 11.305.39 16.978 0 173.506-132.076 373.596-373.576 373.596-74.158 0-143.176-21.73-201.278-59.003a268.122 268.122 0 0 0 31.314 1.843c61.522 0 118.129-20.992 163.083-56.217-57.467-1.045-105.943-39.015-122.655-91.177a130.99 130.99 0 0 0 24.699 2.355c11.98 0 23.572-1.618 34.59-4.608-60.067-12.063-105.328-65.126-105.328-128.758 0-.553 0-1.106.02-1.659 17.695 9.83 37.95 15.75 59.474 16.425-35.225-23.552-58.409-63.733-58.409-109.301 0-24.064 6.472-46.613 17.777-66.007 64.758 79.441 161.505 131.706 270.643 137.195-2.232-9.605-3.4-19.64-3.4-29.921 0-72.52 58.799-131.298 131.298-131.298 37.765 0 71.885 15.954 95.846 41.472 29.901-5.877 58-16.814 83.374-31.866-9.81 30.658-30.617 56.402-57.733 72.642 26.563-3.174 51.876-10.24 75.407-20.664-17.592 26.337-39.854 49.459-65.515 67.973z"/></svg>