<svg class="icon" width="30" height="30" viewBox="0 0 1024 1024" xmlns="http://www.w3.org/2000/svg"><path fill="#1AAD19" d="M273.067 392.533a2 2 0 1 0 68.266 0 2 2 0 1 0-68.266 0zm273.066 179.2a1.5 1.5 0 1 0 51.2 0 1.5 1.5 0 1 0-51.2 0zm-102.4-179.2a2 2 0 1 0 68.267 0 2 2 0 1 0-68.267 0zm238.934 179.2a1.5 1.5 0 1 0 51.2 0 1.5 1.5 0 1 0-51.2 0zM512 0C228.693 0 0 228.693 0 512s228.693 512 512 512 512-228.693 512-512S795.307 0 512 0zM406.187 643.413c-29.014 0-52.907-6.826-81.92-11.946l-81.92 40.96 23.893-71.68c-59.733-40.96-93.867-95.574-93.867-160.427-1.706-112.64 104.107-201.387 233.814-201.387 116.053 0 216.746 71.68 237.226 167.254-6.826 0-15.36-1.707-22.186-1.707-112.64 0-199.68 83.627-199.68 187.733 0 17.067 3.413 34.134 6.826 49.494-6.826 1.706-15.36 1.706-22.186 1.706zm354.986 93.867l17.067 59.733-64.853-35.84c-23.894 5.12-47.787 11.947-69.974 11.947-112.64 0-199.68-76.8-199.68-172.373 0-97.28 88.747-174.08 199.68-174.08 105.814 0 199.68 76.8 199.68 172.373 1.707 54.613-34.133 102.4-81.92 138.24z"/></svg>