<svg class="icon" viewBox="0 0 1024 1024" xmlns="http://www.w3.org/2000/svg" width="30" height="30"><path d="M511.897 0C229.185 0 0 229.185 0 511.9c0 282.709 229.185 511.893 511.897 511.893S1023.79 794.61 1023.79 511.9C1023.79 229.185 794.61 0 511.897 0zm-47.464 767.042c-130.831 0-264.564-63.404-264.564-167.69 0-54.522 34.542-117.57 94.03-177.069 79.43-79.409 172.059-115.582 206.895-80.724 15.372 15.349 16.86 41.947 6.98 73.693-5.15 15.993 15.01 7.138 15.01 7.173 64.202-26.88 120.215-28.465 140.687.788 10.925 15.588 9.88 37.447-.19 62.778-4.656 11.67 1.433 13.478 10.314 16.145 36.176 11.215 76.439 38.34 76.439 86.14-.001 79.116-114.089 178.766-285.6 178.766zm236.853-331.593c4.232-13.073 1.58-27.973-8.284-38.907-9.855-10.913-24.42-15.054-37.85-12.214v-.024c-11.204 2.438-22.248-4.753-24.65-15.947-2.41-11.24 4.749-22.293 15.979-24.686 27.477-5.842 57.245 2.652 77.402 25.016 20.2 22.361 25.602 52.822 16.968 79.543-3.525 10.94-15.245 16.896-26.17 13.4-10.922-3.536-16.895-15.27-13.374-26.181h-.02zm121.126 39.116c-.007.021-.007.07-.007.093-4.11 12.674-17.73 19.615-30.4 15.512-12.718-4.106-19.668-17.696-15.563-30.401l-.007-.008c12.599-39.001 4.609-83.492-24.808-116.11-29.443-32.62-72.856-45.08-112.973-36.562-13.048 2.783-25.88-5.547-28.662-18.582-2.794-13.024 5.524-25.861 18.573-28.654h.024c56.388-11.989 117.481 5.517 158.9 51.438 41.432 45.873 52.6 108.413 34.923 163.274zM640.537 578.312c-6.768-68.515-96.89-115.706-201.3-105.383-104.386 10.323-183.547 74.24-176.766 142.767 6.782 68.546 96.9 115.737 201.298 105.434 104.41-10.329 183.538-74.25 176.768-142.818zM530.835 634.57c-21.305 48.19-82.586 73.882-134.575 57.115-50.193-16.2-71.442-65.757-49.466-110.401 21.578-43.772 77.728-68.53 127.406-55.606 51.413 13.288 77.649 61.788 56.635 108.892zm-106.23-36.712c-16.165-6.777-37.062.192-47.038 15.834-10.098 15.71-5.36 34.42 10.692 41.73 16.286 7.436 37.908.376 48.008-15.734 9.915-16.27 4.694-34.858-11.662-41.83zm39.844-16.518c-6.204-2.462-13.96.518-17.597 6.62-3.534 6.133-1.584 13.118 4.633 15.676 6.324 2.603 14.395-.403 18.047-6.642 3.484-6.287 1.22-13.349-5.083-15.654z" fill="#e32529"/></svg>